<svg xmlns="http://www.w3.org/2000/svg" width="901" height="1475" fill="none" viewBox="0 0 901 1475">
  <path fill="#A154F2" fill-opacity=".7" d="M932.747 1474.41c2.555-141.46 5.11-282.92-57.348-382.21-62.462-99.293-189.937-156.42-300.447-224.55-110.509-68.129-204.054-147.262-233.386-268.04-29.328-120.781 5.552-283.206-40.583-393.086C254.844 96.646 127.692 39.31.536-18.024l620.305-402.307 191.472 295.225C876.137-26.698 939.961 71.71 1003.79 170.118c63.82 98.409 127.64 196.817 191.47 295.225 63.82 98.409 127.65 196.817 191.47 295.225 63.82 98.408 127.65 196.817 191.47 295.222l-645.453 418.62Z"/>
  <path fill="#7418D4" fill-opacity=".3" d="M932.747 1474.41c2.555-141.46 5.11-282.92-57.348-382.21-62.462-99.293-189.937-156.42-300.447-224.55-110.509-68.129-204.054-147.262-233.386-268.04-29.328-120.781 5.552-283.206-40.583-393.086C254.844 96.646 127.692 39.31.536-18.024l620.305-402.307 191.472 295.225C876.137-26.698 939.961 71.71 1003.79 170.118c63.82 98.409 127.64 196.817 191.47 295.225 63.82 98.409 127.65 196.817 191.47 295.225 63.82 98.408 127.65 196.817 191.47 295.222l-645.453 418.62Z"/>
</svg>
