<svg xmlns="http://www.w3.org/2000/svg" width="1728" height="175" fill="none" viewBox="0 0 1728 175">
  <path fill="#A154F2" fill-opacity=".7" d="M0 1.092C144 34.55 288 68.007 432 74.537c144 6.527 288-13.874 432-34.275 144-20.401 288-40.803 432-39.17 144 1.632 288 25.296 432 48.962V383H0V1.092Z"/>
  <path fill="#7418D4" fill-opacity=".3" d="M0 1.092C144 34.55 288 68.007 432 74.537c144 6.527 288-13.874 432-34.275 144-20.401 288-40.803 432-39.17 144 1.632 288 25.296 432 48.962V383H0V1.092Z"/>
  <path stroke="#783CC8" stroke-width="2" d="M0 1.092C144 34.55 288 68.007 432 74.537c144 6.527 288-13.874 432-34.275 144-20.401 288-40.803 432-39.17 144 1.632 288 25.296 432 48.962"/>
</svg>
